HIERARCHY
ROOT Hips
{
  OFFSET 99.5111 100.511 -117.406
  CHANNELS 6 Xposition Yposition Zposition Zrotation Xrotation Yrotation
  JOINT RightUpLeg
  {
    OFFSET -8.9458 -8.66707 0.101652
    CHANNELS 3 Zrotation Xrotation Yrotation
    JOINT RightLeg
    {
      OFFSET 0 -44.4227 1.3727
      CHANNELS 3 Zrotation Xrotation Yrotation
      JOINT RightFoot
      {
        OFFSET 0.253549 -42.0924 -1.46059
        CHANNELS 3 Zrotation Xrotation Yrotation
        JOINT RightToes
        {
          OFFSET 0.04 -4.41509 8.4991
          CHANNELS 3 Zrotation Xrotation Yrotation
          End Site
          {
            OFFSET -0.08 -0.137448 9.77979
          }
        }
      }
    }
  }
  JOINT Spine
  {
    OFFSET 0 11.8905 0
    CHANNELS 3 Zrotation Xrotation Yrotation
    JOINT Spine1
    {
      OFFSET 0 25.6574 0.127663
      CHANNELS 3 Zrotation Xrotation Yrotation
      JOINT HEad
      {
        OFFSET 0 8.73416 0.011341
        CHANNELS 3 Zrotation Xrotation Yrotation
        End Site
        {
          OFFSET -0.29 12.7742 2.51395
        }
      }
      JOINT LeftShoulder1
      {
        OFFSET 8.99 -0.362252 -0.22
        CHANNELS 3 Zrotation Xrotation Yrotation
        JOINT LeftArm
        {
          OFFSET 10.2827 -0.00338 0.322123
          CHANNELS 3 Zrotation Xrotation Yrotation
          JOINT LeftForeArm
          {
            OFFSET 32.7669 0.099144 -1.42434
            CHANNELS 3 Zrotation Xrotation Yrotation
            JOINT LeftHand
            {
              OFFSET 27.5643 0.085362 1.02216
              CHANNELS 3 Zrotation Xrotation Yrotation
              End Site
              {
                OFFSET 16.7443 -0.6 1.50291
              }
            }
          }
        }
      }
      JOINT RightShoulder
      {
        OFFSET -8.99 -0.362252 -0.22
        CHANNELS 3 Zrotation Xrotation Yrotation
        JOINT RightArm
        {
          OFFSET -10.2827 -0.00338 0.322123
          CHANNELS 3 Zrotation Xrotation Yrotation
          JOINT RightForeArm
          {
            OFFSET -32.8971 0.099144 -1.42434
            CHANNELS 3 Zrotation Xrotation Yrotation
            JOINT RightHand
            {
              OFFSET -27.4921 0.085362 1.02216
              CHANNELS 3 Zrotation Xrotation Yrotation
              End Site
              {
                OFFSET -16.6312 -0.6 1.50291
              }
            }
          }
        }
      }
    }
  }
  JOINT LeftUpLeg
  {
    OFFSET 8.9458 -8.66707 0.101652
    CHANNELS 3 Zrotation Xrotation Yrotation
    JOINT LeftLeg
    {
      OFFSET 0 -44.4227 1.3727
      CHANNELS 3 Zrotation Xrotation Yrotation
      JOINT LeftFoot
      {
        OFFSET -0.253549 -42.0924 -1.46059
        CHANNELS 3 Zrotation Xrotation Yrotation
        JOINT LeftToes
        {
          OFFSET -0.04 -4.41509 8.4991
          CHANNELS 3 Zrotation Xrotation Yrotation
          End Site
          {
            OFFSET 0.08 -0.047448 9.77979
          }
        }
      }
    }
  }
}
MOTION
Frames:	18
Frame Time:	0.0166667
109.745 95.3281 258.613 -1.06199 -5.73282 -175.533 -1.8338 -30.77 8.31007 2.78643 3.01781 -16.6792 0.344062 -5.64425 -0.175315 -12.4048 6.25865 14.6856 -0.956641 -4.51361 -8.7312 -6.12833 -3.60738 -7.68172 -2.33789 30.4567 4.76564 9.44227e-016 0 3.18055e-015 -89.9144 -53.8712 -31.8265 -23.0534 10.3512 3.00973 0.368473 9.90896 -0.00117925 51.2069 8.76735 11.3657 16.4069 -53.2429 -6.18723 19.9981 11.4883 -12.2129 -0.369625 9.91382 0.00119887 -4.99872 2.24119 -11.6677 -7.80123 23.0929 15.577 2.33291 -13.2059 0.306335 -1.75657 -16.989 3.25168 
109.755 95.3964 256.28 -0.537146 -5.52362 -175.513 -0.824935 -31.0041 8.51366 3.16413 5.34038 -15.7374 -0.515937 -1.17513 -0.13725 -8.39081 9.2054 11.2965 -0.218548 -4.43862 -8.25387 -5.61923 -3.23486 -7.4572 -2.39736 30.7149 4.09455 -3.97569e-016 3.97569e-016 -1.59028e-015 -88.8752 -53.6217 -30.0902 -23.6328 10.5457 2.44921 0.368473 9.90896 -0.00117925 51.4026 8.68446 11.1702 15.2547 -53.1407 -7.20605 20.0257 11.417 -12.2248 -0.369625 9.91382 0.00119887 -3.88544 3.5241 -11.3793 -8.2444 23.4378 15.5574 1.81569 -11.8647 0.227787 0.0427991 -17.1068 2.16884 
109.76 95.4773 253.934 0.000446511 -5.25187 -175.523 0.12464 -31.11 9.41546 3.65397 7.62112 -15.5615 -1.18749 2.63254 -0.104976 -4.70964 11.392 8.30574 0.521303 -4.44569 -7.69405 -5.02031 -2.75866 -7.12878 -2.51053 30.9188 3.22619 -3.97569e-016 -5.96354e-016 -1.59028e-015 -88.2756 -53.3619 -28.7764 -24.1125 10.6416 2.31577 0.368473 9.90896 -0.00117925 51.4949 8.57805 10.9645 14.1646 -53.164 -8.06951 19.9835 11.3773 -12.2105 -0.369625 9.91382 0.00119887 -2.72566 4.63834 -11.0912 -8.81894 24.1313 15.6373 1.2582 -10.3634 0.155589 2.24728 -17.0468 0.771005 
109.741 95.5917 251.543 0.614393 -4.78959 -175.589 0.839901 -30.7953 12.7202 4.86293 9.60699 -18.012 -1.26392 4.78832 -0.0840417 -2.73891 11.5493 6.4504 1.32112 -4.74867 -6.86698 -4.11413 -1.96709 -6.47809 -2.81227 30.9946 1.70733 9.93923e-017 -1.98785e-016 -0 -88.7196 -52.9846 -28.5213 -24.5393 10.4837 3.35558 0.368473 9.90896 -0.00117925 51.3451 8.40622 10.7185 12.9602 -53.5508 -8.6808 19.7725 11.428 -12.1328 -0.369625 9.91382 0.00119887 -1.38351 5.43569 -10.9121 -9.80524 25.6176 16.0097 0.562532 -8.64907 0.0901539 4.95112 -16.3738 -1.01707 
109.737 95.7269 249.158 1.17023 -4.27003 -175.756 1.50919 -30.2426 16.0384 6.2936 11.6067 -20.5552 -1.17671 5.61762 -0.0747241 -1.92582 10.1858 5.27953 2.04067 -5.03746 -5.99511 -3.22058 -1.07716 -5.74657 -3.15492 30.9244 0.129657 -2.73329e-016 3.97569e-016 1.59028e-015 -89.9578 -52.9659 -28.9741 -24.372 10.1371 5.03788 0.368473 9.90896 -0.00117925 50.9552 8.20091 10.481 12.3619 -54.1393 -8.75877 19.411 11.5188 -11.9989 -0.369625 9.91382 0.00119887 -0.0127985 5.67227 -10.4861 -10.9628 27.9443 16.5615 -0.153432 -6.23983 0.0517195 9.65629 -15.6524 -4.1822 
109.784 95.8915 246.793 1.49635 -3.79552 -176.138 2.38926 -29.7738 17.4561 7.27478 14.1612 -20.9989 -1.25742 4.90796 -0.0817751 -2.22039 6.63302 4.63691 2.43378 -5.05369 -5.25998 -2.6003 -0.304226 -5.12418 -3.54487 30.708 -0.898037 7.45443e-017 7.95139e-016 7.95139e-016 -92.118 -53.9108 -30.1274 -22.8463 9.53659 7.35429 0.368473 9.90896 -0.00117925 50.261 7.98867 10.3117 13.2017 -54.9269 -7.84797 18.8129 11.6402 -11.7772 -0.369625 9.91382 0.00119887 1.31446 4.99381 -9.30071 -12.1504 31.4015 17.4809 -0.862371 -2.42359 0.0694207 19.8495 -15.8594 -10.8727 
109.866 96.0425 244.529 1.77512 -3.33 -176.563 3.36517 -29.2686 17.4481 7.71982 16.872 -20.0625 -1.40769 3.28252 -0.0988016 -2.82922 3.22771 4.33631 2.8095 -4.85119 -4.60353 -2.14983 0.549283 -4.53999 -3.67015 30.2992 -1.87113 7.45443e-017 -9.93923e-017 7.95139e-016 -94.9583 -55.215 -31.8338 -20.6325 8.924 9.47756 0.368473 9.90896 -0.00117925 49.3257 7.74489 10.1459 15.17 -55.642 -6.20771 18.1926 11.727 -11.548 -0.369625 9.91382 0.00119887 2.5829 3.56203 -7.95432 -13.47 35.6973 18.2391 -1.41045 2.1621 0.115961 29.4681 -14.9214 -17.7203 
110 96.1115 242.491 2.16258 -2.84131 -176.898 4.52858 -28.6177 15.4458 7.16932 19.5783 -17.2258 -1.69275 1.15579 -0.12183 -2.55471 2.9125 3.98679 3.47095 -4.30827 -4.03515 -1.89184 1.6868 -3.98495 -3.06646 29.5847 -3.15686 -1.86361e-017 1.49089e-016 -7.95139e-016 -98.3272 -56.5009 -33.9009 -18.0955 8.5574 10.4383 0.368473 9.90896 -0.00117925 48.135 7.43464 9.92092 18.3751 -55.9346 -3.96154 17.7622 11.6812 -11.3907 -0.369625 9.91382 0.00119887 3.72936 1.37629 -6.8101 -14.6645 40.9067 17.6449 -1.5195 7.35961 0.174423 33.2822 -11.0129 -21.7298 
110.132 96.1825 240.568 2.54613 -2.42233 -177.143 5.64719 -27.8054 12.7002 5.98056 21.9237 -13.8096 -1.9562 -1.05873 -0.148598 -2.38985 3.19604 3.90181 4.19374 -3.69449 -3.53491 -1.73281 2.87774 -3.46619 -2.24748 28.7212 -4.50729 -2.48481e-017 -3.97569e-016 -0 -101.923 -57.7078 -36.2982 -15.638 8.36623 10.693 0.368473 9.90896 -0.00117925 46.8534 7.11423 9.69183 22.1124 -55.984 -1.28617 17.4482 11.5915 -11.2769 -0.369625 9.91382 0.00119887 4.74408 -1.39772 -6.06297 -15.6787 46.4399 17.3321 -1.525 12.4413 0.248678 34.2395 -6.12841 -23.7945 
110.203 96.3094 238.719 2.87986 -2.11232 -177.192 6.37447 -26.8318 10.2492 4.80263 23.4161 -11.2794 -2.04446 -2.69852 -0.176777 -3.29851 2.08062 4.45748 4.89026 -3.21255 -3.0637 -1.58971 4.05581 -2.94589 -1.46514 27.762 -5.91453 -1.98785e-016 0 -3.97569e-016 -105.569 -58.5487 -39.1668 -13.7724 8.39381 10.1739 0.368473 9.90896 -0.00117925 45.6765 6.79319 9.40736 25.8446 -55.85 1.77062 17.2658 11.5182 -11.2112 -0.369625 9.91382 0.00119887 5.41792 -4.61796 -6.19934 -17.3438 51.6636 19.4368 -1.79717 16.9896 0.362579 32.298 -0.939329 -23.4887 
110.248 96.5137 236.866 3.11105 -2.04022 -177.229 6.89424 -25.7899 8.05939 3.62651 24.2414 -9.08402 -2.00836 -4.09606 -0.202177 -4.28194 1.01861 5.12489 5.49286 -2.94371 -2.68313 -1.42394 4.92966 -2.54672 -0.961221 26.9224 -7.06665 -7.45443e-017 0 -7.95139e-016 -108.416 -59.3853 -41.4875 -12.4505 8.53719 9.47041 0.368473 9.90896 -0.00117925 44.5033 6.57821 9.32232 29.1583 -55.5883 4.67296 17.1583 11.4494 -11.173 -0.369625 9.91382 0.00119887 5.8658 -8.17086 -6.70438 -19.9542 56.275 23.2581 -1.93216 19.9167 0.435301 28.5235 3.81838 -21.8539 
110.274 96.8587 234.892 3.15771 -2.48473 -177.405 7.18627 -24.8953 6.43192 2.58316 24.365 -7.12785 -1.83609 -5.34172 -0.219682 -4.54718 0.980573 5.37554 5.91173 -3.19342 -2.48289 -1.09978 4.98636 -2.45765 -1.17085 26.6042 -7.56306 -1.2424e-016 1.59028e-015 -7.95139e-016 -108.947 -60.6981 -41.8275 -12.0362 8.75021 9.30566 0.368473 9.90896 -0.00117925 43.3719 6.66562 9.8182 31.0134 -55.3912 6.58019 17.0853 11.3988 -11.1472 -0.369625 9.91382 0.00119887 6.2366 -12.0238 -7.17876 -23.3928 59.838 28.4492 -1.48693 19.3453 0.345169 24.7332 6.60382 -19.4917 
110.302 97.2729 232.886 3.06391 -3.0353 -177.719 7.32274 -23.8739 5.31113 1.71417 24.0128 -5.51197 -1.56088 -6.49921 -0.229643 -4.63363 1.40092 5.57795 6.13707 -3.49209 -2.33956 -0.77868 4.82366 -2.44464 -1.61404 26.3243 -7.7266 -1.2424e-015 -1.59028e-015 3.97569e-016 -108.73 -62.1471 -41.4416 -11.8079 8.91257 9.21187 0.368473 9.90896 -0.00117925 42.065 6.79576 10.4625 32.9629 -55.1086 8.5379 17.0128 11.3487 -11.1216 -0.369625 9.91382 0.00119887 6.5203 -15.8247 -7.76562 -27.6735 62.2156 34.4348 -0.8955 17.2265 0.214594 20.3572 8.44606 -16.3907 
110.371 97.7207 230.898 2.81701 -3.3238 -178.254 7.37452 -22.4303 4.79168 1.00988 23.3773 -4.25344 -1.15756 -7.71748 -0.227671 -4.81918 2.17909 5.98357 6.04493 -3.37081 -2.15576 -0.610105 4.89382 -2.31863 -1.9504 25.6609 -7.71532 4.96962e-017 7.95139e-016 7.95139e-016 -109.322 -63.542 -41.4827 -10.9331 8.82522 8.87391 0.368473 9.90896 -0.00117925 40.3152 6.74648 10.9157 36.4648 -54.5773 11.4692 16.8715 11.2932 -11.0705 -0.369625 9.91382 0.00119887 6.76801 -19.1706 -8.42582 -31.9464 63.3513 39.6442 -0.464411 14.8672 0.133118 15.0185 10.1238 -12.5029 
110.441 98.1573 228.931 2.51771 -3.50027 -178.91 7.37007 -20.807 4.75274 0.522093 22.5566 -3.42339 -0.78986 -8.83114 -0.22288 -5.06136 2.89244 6.41956 5.86362 -3.13133 -1.94398 -0.531788 5.12137 -2.13261 -2.28556 24.8144 -7.58695 -9.44227e-016 7.95139e-016 -0 -109.74 -64.7392 -41.2153 -10.1082 8.67545 8.5563 0.368473 9.90896 -0.00117925 38.3352 6.60949 11.2778 40.4985 -53.7836 14.6708 16.7272 11.211 -11.0189 -0.369625 9.91382 0.00119887 7.01079 -22.1857 -9.25225 -35.6341 63.4108 43.9694 -0.125773 12.3228 0.0761235 10.1946 10.7452 -8.88971 
110.471 98.5206 227.013 2.2912 -3.56832 -179.625 7.37089 -19.1095 5.10153 0.275487 21.6911 -3.10211 -0.644248 -9.6978 -0.222788 -5.441 3.0487 6.83529 5.82857 -2.94068 -1.64797 -0.535333 5.66074 -1.84344 -2.60795 23.8072 -7.49843 -1.98785e-016 7.95139e-016 -1.19271e-015 -109.426 -65.3966 -40.2008 -9.83966 8.60448 8.45308 0.368473 9.90896 -0.00117925 36.2148 6.38946 11.5228 44.5411 -52.685 17.7456 16.6056 11.0375 -11.0894 -0.369625 9.91382 0.00119887 7.31327 -24.835 -10.3411 -38.3691 62.47 47.2477 0.116814 10.2014 0.0497335 7.89039 9.41107 -6.97334 
110.497 98.8261 225.116 2.06073 -3.5994 179.639 7.32257 -17.423 5.8415 0.222027 20.8402 -3.22857 -0.630247 -10.3974 -0.22798 -5.79648 2.76385 7.10526 5.80122 -2.73421 -1.37602 -0.618968 6.2746 -1.54991 -2.94136 22.7517 -7.30368 1.98785e-016 2.38542e-015 -7.95139e-016 -108.486 -65.8857 -38.4826 -9.8508 8.55547 8.45839 0.368473 9.90896 -0.00117925 34.048 6.124 11.6913 48.5736 -51.3516 20.7308 16.5575 10.897 -10.9637 -0.369625 9.91382 0.00119887 7.57404 -27.1739 -11.6627 -39.8371 60.686 49.2471 0.188078 8.15184 0.0466546 6.81198 7.05973 -5.82417 
110.558 99.0711 223.234 1.76006 -3.66443 178.953 7.19787 -15.8988 7.02645 0.345517 20.1472 -3.81287 -0.661295 -10.887 -0.23526 -5.88799 1.8294 6.93271 5.67162 -2.46798 -1.24359 -0.817241 6.7824 -1.34645 -3.24577 21.761 -6.90165 3.97569e-016 -1.59028e-015 -0 -106.971 -66.537 -36.0897 -9.96478 8.50716 8.50462 0.368473 9.90896 -0.00117925 31.9656 5.83743 11.7682 52.6171 -49.8037 23.6939 16.6499 10.9184 -10.2665 -0.369625 9.91382 0.00119887 7.70914 -29.2715 -13.2446 -40.0662 58.1774 50.1122 -0.0880937 5.8836 0.0696843 6.36916 4.18556 -5.08753 
